<?xml version="1.0" encoding="UTF-8" standalone="no"?>
<!-- Created with Inkscape (http://www.inkscape.org/) -->

<svg
   xmlns:dc="http://purl.org/dc/elements/1.1/"
   xmlns:cc="http://creativecommons.org/ns#"
   xmlns:rdf="http://www.w3.org/1999/02/22-rdf-syntax-ns#"
   xmlns:svg="http://www.w3.org/2000/svg"
   xmlns="http://www.w3.org/2000/svg"
   xmlns:sodipodi="http://sodipodi.sourceforge.net/DTD/sodipodi-0.dtd"
   xmlns:inkscape="http://www.inkscape.org/namespaces/inkscape"
   width="377.6434"
   height="377.6434"
   id="svg2"
   version="1.1"
   inkscape:version="0.48.4 r9939"
   sodipodi:docname="pequerrechos_disabled.svg">
  <defs
     id="defs4" />
  <sodipodi:namedview
     id="base"
     pagecolor="#ffffff"
     bordercolor="#666666"
     borderopacity="1.0"
     inkscape:pageopacity="0.0"
     inkscape:pageshadow="2"
     inkscape:zoom="0.73168726"
     inkscape:cx="96.637451"
     inkscape:cy="518.80953"
     inkscape:document-units="px"
     inkscape:current-layer="layer1"
     showgrid="false"
     inkscape:window-width="1680"
     inkscape:window-height="994"
     inkscape:window-x="0"
     inkscape:window-y="27"
     inkscape:window-maximized="1"
     fit-margin-top="5"
     fit-margin-left="5"
     fit-margin-right="5"
     fit-margin-bottom="5" />
  <metadata
     id="metadata7">
    <rdf:RDF>
      <cc:Work
         rdf:about="">
        <dc:format>image/svg+xml</dc:format>
        <dc:type
           rdf:resource="http://purl.org/dc/dcmitype/StillImage" />
        <dc:title></dc:title>
      </cc:Work>
    </rdf:RDF>
  </metadata>
  <g
     inkscape:label="Capa 1"
     inkscape:groupmode="layer"
     id="layer1"
     transform="translate(-8.9024845,-667.34722)">
    <g
       id="g3837"
       transform="translate(-116.16985,295.20809)">
      <path
         transform="translate(-74.933296,210.40123)"
         d="m 572.64903,350.5596 c 0,101.52192 -82.29978,183.8217 -183.8217,183.8217 -101.52192,0 -183.8217,-82.29978 -183.8217,-183.8217 0,-101.52192 82.29978,-183.8217 183.8217,-183.8217 101.52192,0 183.8217,82.29978 183.8217,183.8217 z"
         sodipodi:ry="183.8217"
         sodipodi:rx="183.8217"
         sodipodi:cy="350.5596"
         sodipodi:cx="388.82733"
         id="path2996"
         style="fill:#ffffff;fill-opacity:1;stroke:none"
         sodipodi:type="arc" />
      <path
         transform="translate(-69.524757,218.33128)"
         d="m 557.45285,342.62955 c 0,96.11635 -77.9177,174.03405 -174.03406,174.03405 -96.11635,0 -174.03405,-77.9177 -174.03405,-174.03405 0,-96.11636 77.9177,-174.03406 174.03405,-174.03406 96.11636,0 174.03406,77.9177 174.03406,174.03406 z"
         sodipodi:ry="174.03406"
         sodipodi:rx="174.03406"
         sodipodi:cy="342.62955"
         sodipodi:cx="383.41879"
         id="path2985"
         style="fill:#ffe5b7;fill-opacity:1;stroke:#000000;stroke-width:4;stroke-miterlimit:4;stroke-opacity:1;stroke-dasharray:none"
         sodipodi:type="arc" />
      <path
         sodipodi:nodetypes="ccccccccccc"
         inkscape:connector-curvature="0"
         id="path3792"
         d="m 139.85996,560.96083 70.70134,-100.61344 9.51749,48.94708 35.35066,-33.99103 85.65739,23.1139 19.03498,-29.9121 38.06995,28.55246 -9.51749,-39.42959 51.66636,17.67533 47.58743,94.15514 C 489.28771,320.64427 142.57924,337.9797 139.85996,560.96083 z"
         style="fill:#000000;fill-opacity:1;stroke:#000000;stroke-width:1px;stroke-linecap:butt;stroke-linejoin:miter;stroke-opacity:1" />
    </g>
  </g>
</svg>
